<svg xmlns="http://www.w3.org/2000/svg" viewBox="0 0 64 48">
  <rect width="64" height="48" fill="#de2910" />
  <polygon
    points="12,6 14.1,12.5 21.4,12.5 15.4,16.5 17.5,23 12,18.7 6.5,23 8.6,16.5 2.6,12.5 9.9,12.5"
    fill="#ffde00"
  />
  <polygon points="24,6 25,8.8 27.9,8.8 25.5,10.5 26.4,13.2 24,11.5 21.6,13.2 22.5,10.5 20.1,8.8 23,8.8" fill="#ffde00" />
  <polygon points="29,12 30,14.8 32.9,14.8 30.5,16.5 31.4,19.2 29,17.5 26.6,19.2 27.5,16.5 25.1,14.8 28,14.8" fill="#ffde00" />
  <polygon points="29,20 30,22.8 32.9,22.8 30.5,24.5 31.4,27.2 29,25.5 26.6,27.2 27.5,24.5 25.1,22.8 28,22.8" fill="#ffde00" />
  <polygon points="24,26 25,28.8 27.9,28.8 25.5,30.5 26.4,33.2 24,31.5 21.6,33.2 22.5,30.5 20.1,28.8 23,28.8" fill="#ffde00" />
</svg>
