<svg xmlns="http://www.w3.org/2000/svg" viewBox="0 0 64 48">
  <rect width="64" height="48" fill="#b22234" />
  <g fill="#fff">
    <rect y="6" width="64" height="6" />
    <rect y="18" width="64" height="6" />
    <rect y="30" width="64" height="6" />
    <rect y="42" width="64" height="6" />
  </g>
  <rect width="26" height="24" fill="#3c3b6e" />
  <g fill="#fff">
    <circle cx="4" cy="4" r="1.4" />
    <circle cx="9" cy="4" r="1.4" />
    <circle cx="14" cy="4" r="1.4" />
    <circle cx="19" cy="4" r="1.4" />
    <circle cx="24" cy="4" r="1.4" />
    <circle cx="6.5" cy="8" r="1.4" />
    <circle cx="11.5" cy="8" r="1.4" />
    <circle cx="16.5" cy="8" r="1.4" />
    <circle cx="21.5" cy="8" r="1.4" />
    <circle cx="4" cy="12" r="1.4" />
    <circle cx="9" cy="12" r="1.4" />
    <circle cx="14" cy="12" r="1.4" />
    <circle cx="19" cy="12" r="1.4" />
    <circle cx="24" cy="12" r="1.4" />
    <circle cx="6.5" cy="16" r="1.4" />
    <circle cx="11.5" cy="16" r="1.4" />
    <circle cx="16.5" cy="16" r="1.4" />
    <circle cx="21.5" cy="16" r="1.4" />
    <circle cx="4" cy="20" r="1.4" />
    <circle cx="9" cy="20" r="1.4" />
    <circle cx="14" cy="20" r="1.4" />
    <circle cx="19" cy="20" r="1.4" />
    <circle cx="24" cy="20" r="1.4" />
  </g>
</svg>
